<?xml version="1.0" standalone="no"?>
<!DOCTYPE svg PUBLIC "-//W3C//DTD SVG 20010904//EN"
 "http://www.w3.org/TR/2001/REC-SVG-20010904/DTD/svg10.dtd">
<svg version="1.0" xmlns="http://www.w3.org/2000/svg"
 width="782.200000pt" height="117.600000pt" viewBox="119.000000 452.900000 782.200000 117.600000"
 preserveAspectRatio="xMidYMid meet">

<g transform="translate(0.000000,1024.000000) scale(0.100000,-0.100000)"
fill="#000000" stroke="none">
<path d="M1503 5703 c-13 -2 -77 -61 -143 -131 l-119 -127 257 -5 257 -5 5
-448 5 -448 148 -2 c141 -2 147 -1 147 18 1 11 2 214 3 450 l2 430 135 3 135
3 128 127 c70 70 127 130 127 134 0 8 -1047 9 -1087 1z"/>
<path d="M3260 5703 c0 -5 0 -260 -1 -568 0 -308 0 -569 0 -580 1 -19 7 -20
139 -18 75 1 143 2 150 2 9 1 12 80 12 359 0 197 3 361 6 365 4 3 77 -112 164
-256 l157 -262 129 -3 129 -3 137 228 c75 126 144 245 154 265 39 77 41 55 43
-324 1 -200 5 -365 9 -368 4 -3 71 -4 150 -2 l142 4 0 584 0 585 -187 -3 -188
-3 -40 -61 c-22 -34 -107 -176 -190 -317 -82 -141 -153 -256 -156 -257 -4 0
-27 35 -51 78 -148 258 -312 529 -330 545 -18 15 -43 17 -199 17 -98 0 -179
-3 -179 -7z"/>
<path d="M4918 5704 c-3 -5 111 -184 253 -398 l259 -389 0 -189 0 -188 149 0
150 0 3 193 3 192 144 215 c330 495 368 555 357 562 -19 13 -299 9 -325 -5
-14 -7 -85 -108 -170 -241 -81 -126 -151 -231 -156 -233 -6 -2 -34 34 -63 79
-146 228 -229 355 -244 377 -16 23 -22 24 -186 29 -93 2 -172 1 -174 -4z"/>
<path d="M6420 5589 l-120 -122 0 -351 0 -352 68 -64 c37 -36 91 -88 120 -115
l53 -50 392 3 392 2 116 118 117 117 1 344 2 343 -120 122 -120 121 -390 3
-390 3 -121 -122z m825 -168 c10 -33 0 -600 -11 -611 -7 -7 -116 -9 -315 -8
l-304 3 -3 305 c-1 168 0 310 3 317 3 10 74 13 314 13 296 0 310 -1 316 -19z"/>
<path d="M7873 5587 l-123 -123 0 -345 0 -344 120 -120 120 -120 398 3 397 4
113 111 112 112 0 355 0 356 -118 117 -119 117 -388 0 -389 0 -123 -123z m822
-467 l0 -315 -315 0 -315 0 -3 305 c-1 168 0 311 3 318 3 10 71 12 317 10
l313 -3 0 -315z"/>
<path d="M2848 5539 l-148 -150 0 -425 0 -424 155 0 155 0 0 575 c0 316 -3
575 -7 575 -3 0 -73 -68 -155 -151z"/>
</g>
</svg>
